<svg width="24" height="24" viewBox="0 0 24 24" fill="none" xmlns="http://www.w3.org/2000/svg">
<path d="M5.55078 17.4359C5.55078 18.2984 6.22578 19.0109 7.12578 19.0109H8.13828V22.1984C8.13828 22.9859 8.77578 23.6234 9.56328 23.6234C10.3508 23.6234 10.9883 22.9859 10.9883 22.1984V19.0109H12.9008V22.1984C12.9008 22.9859 13.5383 23.6234 14.3258 23.6234C15.1133 23.6234 15.7508 22.9859 15.7508 22.1984V19.0109H16.7633C17.6258 19.0109 18.3383 18.3359 18.3383 17.4359V8.21094H5.55078V17.4359Z" fill="#111928"/>
<path d="M15.1867 2.55L16.1617 0.75C16.1992 0.6375 16.1992 0.525 16.1242 0.4875C16.0492 0.375 16.0117 0.375 16.0117 0.375C15.9742 0.375 15.8617 0.4125 15.8617 0.4875L14.8492 2.325C13.9867 1.95 13.0492 1.7625 12.1117 1.7625C11.0992 1.7625 10.1992 1.9875 9.37422 2.325L8.36172 0.4875C8.32422 0.375 8.21172 0.3375 8.09922 0.45C7.98672 0.4875 7.94922 0.6 8.06172 0.7125L9.07422 2.5125C6.97422 3.5625 5.69922 5.475 5.69922 7.6875H18.5242C18.4492 5.4375 17.0617 3.5625 15.1867 2.55ZM9.03672 5.3625C8.77422 5.3625 8.51172 5.1 8.51172 4.8375C8.51172 4.575 8.77422 4.3125 9.03672 4.3125C9.29922 4.3125 9.56172 4.575 9.56172 4.8375C9.56172 5.1 9.37422 5.3625 9.03672 5.3625ZM14.9617 5.3625C14.6992 5.3625 14.4367 5.1 14.4367 4.8375C14.4367 4.575 14.6992 4.3125 14.9617 4.3125C15.2242 4.3125 15.4867 4.575 15.4867 4.8375C15.4867 5.1 15.2617 5.3625 14.9617 5.3625Z" fill="#111928"/>
<path d="M3.60078 7.95312C2.81328 7.95312 2.17578 8.59063 2.17578 9.37813V15.3406C2.17578 16.1281 2.81328 16.7656 3.60078 16.7656C4.38829 16.7656 5.02579 16.1281 5.02579 15.3406V9.37813C5.06329 8.55313 4.38829 7.95312 3.60078 7.95312Z" fill="#111928"/>
<path d="M20.4016 7.95312C19.6141 7.95312 18.9766 8.59063 18.9766 9.37813V15.3406C18.9766 16.1281 19.6141 16.7656 20.4016 16.7656C21.1891 16.7656 21.8266 16.1281 21.8266 15.3406V9.37813C21.8266 8.55313 21.1891 7.95312 20.4016 7.95312Z" fill="#111928"/>
</svg>
