<svg width="24" height="24" viewBox="0 0 24 24" fill="none" xmlns="http://www.w3.org/2000/svg">
<path d="M20.8603 8.35947C20.7254 8.46248 18.3444 9.78349 18.3444 12.7209C18.3444 16.1184 21.3742 17.3204 21.4648 17.3502C21.4509 17.4234 20.9835 18.9963 19.8674 20.5989C18.8722 22.0092 17.8329 23.4173 16.2517 23.4173C14.6705 23.4173 14.2636 22.5129 12.4383 22.5129C10.6595 22.5129 10.027 23.447 8.58075 23.447C7.13445 23.447 6.12529 22.142 4.965 20.5394C3.62104 18.6575 2.53516 15.7338 2.53516 12.959C2.53516 8.5083 5.47425 6.14783 8.36681 6.14783C9.90379 6.14783 11.185 7.14146 12.15 7.14146C13.0684 7.14146 14.5008 6.08832 16.2493 6.08832C16.912 6.08832 19.2931 6.14783 20.8603 8.35947ZM15.4192 4.20409C16.1424 3.35927 16.6539 2.18707 16.6539 1.01487C16.6539 0.852318 16.64 0.687479 16.6098 0.554688C15.4332 0.598187 14.0334 1.32623 13.1893 2.2901C12.5266 3.03188 11.9082 4.20409 11.9082 5.39231C11.9082 5.57093 11.9384 5.74946 11.9523 5.80669C12.0267 5.82045 12.1476 5.83647 12.2686 5.83647C13.3242 5.83647 14.6519 5.14046 15.4192 4.20409Z" fill="#111928"/>
</svg>
