<svg width="24" height="24" viewBox="0 0 24 24" fill="none" xmlns="http://www.w3.org/2000/svg">
<path d="M16.9997 10.5892L12.7097 14.8292C12.6167 14.9229 12.5061 14.9973 12.3843 15.0481C12.2624 15.0989 12.1317 15.125 11.9997 15.125C11.8677 15.125 11.737 15.0989 11.6151 15.0481C11.4933 14.9973 11.3827 14.9229 11.2897 14.8292L7.0497 10.5892C6.95598 10.4962 6.88158 10.3856 6.83081 10.2638C6.78004 10.1419 6.75391 10.0112 6.75391 9.8792C6.75391 9.74719 6.78004 9.61648 6.83081 9.49463C6.88158 9.37277 6.95598 9.26217 7.0497 9.1692C7.23707 8.98295 7.49052 8.87841 7.7547 8.87841C8.01889 8.87841 8.27234 8.98295 8.4597 9.1692L11.9997 12.7092L15.5397 9.1692C15.726 8.98446 15.9774 8.88031 16.2397 8.8792C16.3713 8.87844 16.5018 8.90367 16.6236 8.95343C16.7454 9.00319 16.8563 9.07652 16.9497 9.1692C17.0468 9.25882 17.1251 9.36679 17.1802 9.48686C17.2353 9.60694 17.2661 9.73674 17.2708 9.86878C17.2754 10.0008 17.2539 10.1325 17.2073 10.2561C17.1608 10.3798 17.0902 10.493 16.9997 10.5892Z" fill="#1F2A37"/>
</svg>
