<svg width="24" height="24" viewBox="0 0 24 24" fill="none" xmlns="http://www.w3.org/2000/svg">
<path d="M23.0266 20.8844L16.8391 15.8594C19.3891 12.3719 19.1266 7.38438 15.9391 4.23438C14.2516 2.54688 12.0016 1.60938 9.60156 1.60938C7.20156 1.60938 4.95156 2.54688 3.26406 4.23438C-0.223437 7.72188 -0.223437 13.4219 3.26406 16.9094C4.95156 18.5969 7.20156 19.5344 9.60156 19.5344C11.8891 19.5344 14.0266 18.6719 15.7141 17.1344L21.9766 22.1969C22.1266 22.3094 22.3141 22.3844 22.5016 22.3844C22.7641 22.3844 22.9891 22.2719 23.1391 22.0844C23.4391 21.7094 23.4016 21.1844 23.0266 20.8844ZM9.60156 17.8469C7.65156 17.8469 5.85156 17.0969 4.46406 15.7094C1.61406 12.8594 1.61406 8.24688 4.46406 5.43438C5.85156 4.04688 7.65156 3.29688 9.60156 3.29688C11.5516 3.29688 13.3516 4.04688 14.7391 5.43438C17.5891 8.28438 17.5891 12.8969 14.7391 15.7094C13.3891 17.0969 11.5516 17.8469 9.60156 17.8469Z" fill="#111928"/>
</svg>
